# xmcd CD database file
#
# Track frame offsets:
#	150
#	27522
#	47317
#	57707
#	84080
#	92580
#	121365
#	147760
#
# Disc length: 2411 seconds
#
# Revision: 1
# Processed by: cddbd v1.5.1PL0 Copyright (c) Steve Scherf et al.
# Submitted via: NeoAudio 9.9.9
#
DISCID=60096908
DTITLE=Yves Rousseau Franck Tortiller Pascal Vignon - Spectacles
DYEAR=1998
DGENRE=Jazz
TTITLE0=Le trapèze
TTITLE1=Le rats volants
TTITLE2=Le lion
TTITLE3=Les éléphants
TTITLE4=Il n'y a plus d'après
TTITLE5=Banlieue
TTITLE6=Les clowns
TTITLE7=Si, mi chiamano mimi
EXTD=YEAR: 1998
EXTT0=
EXTT1=
EXTT2=
EXTT3=
EXTT4=
EXTT5=
EXTT6=
EXTT7=
PLAYORDER=
